# xmcd CD database file
#
# Track frame offsets:
#	150
#	19019
#	31253
#	45985
#	74630
#	90564
#	106833
#	129399
#	153584
#	165837
#
# Disc length: 2471 seconds
#
# Revision: 0
# Processed by: cddbd v1.5.1PL0 Copyright (c) Steve Scherf et al.
# Submitted via: CDex 1.51
#
DISCID=6f09a50a
DTITLE=Christiana Drapkin - The Man I Love
DYEAR=1900
DGENRE=Jazz
TTITLE0=The Man I Love
TTITLE1=Crazy He Calls Me
TTITLE2=Honeysuckle Rose
TTITLE3=Good Morning Heartache
TTITLE4=Do Nothing 'Till You Hear From Me
TTITLE5=Straight No Chaser
TTITLE6=You'Ve Changed
TTITLE7=You'D Be So Nice To Come Home To
TTITLE8=Moonlight In Vermont
TTITLE9=Body And Soul
EXTD=
EXTT0=
EXTT1=
EXTT2=
EXTT3=
EXTT4=
EXTT5=
EXTT6=
EXTT7=
EXTT8=
EXTT9=
PLAYORDER=
